<?xml version="1.0" encoding="utf-8"?>
<!-- Generator: Adobe Illustrator 18.0.0, SVG Export Plug-In . SVG Version: 6.00 Build 0)  -->
<!DOCTYPE svg PUBLIC "-//W3C//DTD SVG 1.1//EN" "http://www.w3.org/Graphics/SVG/1.1/DTD/svg11.dtd">
<svg version="1.1" id="Calque_1" xmlns="http://www.w3.org/2000/svg" xmlns:xlink="http://www.w3.org/1999/xlink" x="0px" y="0px"
	 viewBox="0 0 403.7 161" enable-background="new 0 0 403.7 161" xml:space="preserve">
<rect x="-278.5" y="-399.5" display="none" fill="#930635" width="959.1" height="960"/>
<g>
	<path fill="#E3B321" d="M197,76.4l42.2-42.2l21.7,21.7l2.5,2.5c2.7,2.7,2.7,7.1,0,9.8l-2.8,2.8l-0.4,0.4l-22,22h-73.6l-24.5-24.5
		c-2.7-2.7-2.7-7.1,0-9.8l3-3l19-19c1.8-1.8,4.7-1.8,6.5,0l28,28c1.2,1.2,1.2,3.1,0,4.3l-3.4,3.4c-0.6,0.6-0.6,1.6,0,2.2l1.4,1.4
		C195.5,77,196.4,77,197,76.4"/>
	<path fill="#E3B321" d="M197.3,2c1.4-1.3,3.1-2,4.9-2c1.8,0,3.5,0.7,4.9,2l21.1,21.1l2.5,2.5c2.7,2.7,2.7,7.1,0,9.8l-24.2,24.2
		c-1.2,1.2-3.1,1.2-4.3,0l-28-28c-1.8-1.8-1.8-4.7,0-6.5L197.3,2"/>
	<g>
		<path fill="#E3B321" d="M1.6,161H1.4c-0.8,0-1.4-0.7-1.4-1.4v-39.1c0-0.8,0.7-1.4,1.4-1.4c0.8,0,1.5,0.7,1.5,1.4v37.6H23
			c0.8,0,1.5,0.7,1.5,1.5c0,0.8-0.7,1.4-1.5,1.4H1.6z"/>
		<path fill="#E3B321" d="M35.6,120.4c0-0.8,0.7-1.4,1.4-1.4c0.8,0,1.5,0.7,1.5,1.4V144c0,7.7,6.3,14,14,14
			c7.8-0.1,14.1-6.3,14.1-14v-23.6c0-0.8,0.7-1.4,1.4-1.4c0.8,0,1.5,0.7,1.5,1.4V144c0,9.4-7.6,17-17,17c-9.3,0-16.9-7.6-16.9-17
			V120.4z"/>
		<path fill="#E3B321" d="M89.6,125.2v34.4c0,0.8-0.7,1.4-1.4,1.4c-0.8,0-1.4-0.7-1.4-1.4V121c-0.2-0.6,0-1.2,0.5-1.6
			c0.7-0.4,1.6-0.3,2,0.4l25.4,35.3v-34.2c0-0.8,0.7-1.4,1.4-1.4c0.8,0,1.5,0.7,1.5,1.4v38.7c0,0.8-0.7,1.4-1.5,1.4
			c-0.5,0-0.8-0.2-1.1-0.5c-0.1-0.1-0.2-0.1-0.2-0.2L89.6,125.2z"/>
		<path fill="#E3B321" d="M152.4,142.1c-0.8,0-1.5-0.6-1.5-1.4c0-0.8,0.7-1.5,1.5-1.5h13h0.2c0.7,0.1,1.3,0.7,1.3,1.5v14.4v0.2
			c-0.1,0.4-0.2,0.8-0.5,1.1c-3.7,2.9-8.4,4.6-13.6,4.6c-12.1-0.1-21.8-9.5-21.8-21.4c0-11.7,9.8-21.2,21.8-21.2
			c5.2,0,9.8,1.8,13.6,4.7c0.5,0.4,0.7,1.4,0.2,2c-0.5,0.6-1.4,0.7-2.1,0.2c-3.1-2.5-7.2-4.1-11.7-4.1c-10.5,0-18.9,8.2-18.9,18.3
			c0,10.2,8.4,18.4,18.9,18.4c4.1,0,8-1.3,11.1-3.6v-12.4H152.4z"/>
		<path fill="#E3B321" d="M207.6,150.1h-19.1l-3.7,9.9c-0.2,0.6-0.8,1-1.4,1c-0.1,0-0.4-0.1-0.5-0.1c-0.7-0.3-1.1-1.2-0.8-1.9
			l14.6-38.9c0.2-0.5,0.8-0.9,1.4-0.9c0.7,0,1.3,0.4,1.4,0.9L214,159c0.3,0.7-0.1,1.6-0.8,1.9c-0.2,0-0.4,0.1-0.5,0.1
			c-0.5,0-1.1-0.4-1.4-1L207.6,150.1z M189.5,147.2h17l-8.5-22.6L189.5,147.2z"/>
		<path fill="#E3B321" d="M247.3,151.5c0-3.1-1.6-5-3.4-6.4c-1.9-1.3-4.1-2-4.9-2.1c-0.2-0.1-0.2-0.1-0.3-0.1h-10.2v16.6
			c0,0.8-0.7,1.4-1.5,1.4c-0.8,0-1.4-0.7-1.4-1.4v-39.1c0-0.7,0.6-1.4,1.3-1.4h0.1h0.2h11.7c6.6,0,11.9,5.3,11.9,12
			c0,4.8-2.8,8.9-6.9,10.9c0.2,0.1,0.4,0.2,0.6,0.3c2.8,1.6,5.6,4.6,5.6,9.4c0,2.5,0.2,4,0.5,4.9c0.2,0.7,0.5,1,0.6,1
			c0.7-0.1,1.4,0.3,1.6,1c0.2,0.8-0.2,1.6-1,1.9c-0.1,0-0.4,0.1-0.7,0.1h-0.1c-0.8,0-2-0.6-2.7-1.9
			C247.7,157,247.3,155.1,247.3,151.5z M238.9,121.9h-10.4v18.1h10.1h0.5c4.9-0.1,8.8-4.1,8.8-9.1
			C247.9,126,243.8,121.9,238.9,121.9z"/>
		<path fill="#E3B321" d="M284.3,118.4c11.2,0,20,9.5,20.1,21.3c-0.1,11.8-8.9,21.3-20.1,21.3c-11.3,0-20.2-9.5-20.3-21.3
			C264.1,127.9,272.9,118.4,284.3,118.4z M284.3,158.1c9.2,0,17-8.1,17.1-18.4c-0.1-10.4-7.9-18.3-17.1-18.3
			c-9.5,0-17.3,7.9-17.3,18.3C266.9,150,274.7,158.1,284.3,158.1z"/>
		<path fill="#E3B321" d="M327.4,121.9h-12.7c-0.8,0-1.4-0.7-1.4-1.5c0-0.8,0.7-1.4,1.4-1.4H343c0.8,0,1.4,0.7,1.4,1.4
			c0,0.8-0.7,1.5-1.4,1.5h-12.7v37.6c0,0.8-0.7,1.4-1.4,1.4c-0.8,0-1.4-0.7-1.4-1.4V121.9z"/>
		<path fill="#E3B321" d="M369.3,121.9h-12.7c-0.8,0-1.4-0.7-1.4-1.5c0-0.8,0.7-1.4,1.4-1.4h28.2c0.8,0,1.4,0.7,1.4,1.4
			c0,0.8-0.7,1.5-1.4,1.5h-12.7v37.6c0,0.8-0.7,1.4-1.4,1.4c-0.8,0-1.4-0.7-1.4-1.4V121.9z"/>
		<path fill="#E3B321" d="M400.7,120.4c0-0.8,0.7-1.4,1.4-1.4c0.8,0,1.5,0.7,1.5,1.4v39.1c0,0.8-0.7,1.4-1.5,1.4
			c-0.8,0-1.4-0.7-1.4-1.4V120.4z"/>
	</g>
</g>
</svg>
