<?xml version="1.0" encoding="utf-8"?>
<!-- Generator: Adobe Illustrator 17.1.0, SVG Export Plug-In . SVG Version: 6.00 Build 0)  -->
<!DOCTYPE svg PUBLIC "-//W3C//DTD SVG 1.1//EN" "http://www.w3.org/Graphics/SVG/1.1/DTD/svg11.dtd">
<svg version="1.1" xmlns="http://www.w3.org/2000/svg" xmlns:xlink="http://www.w3.org/1999/xlink" x="0px" y="0px"
	 viewBox="0 0 28.3 141.7" enable-background="new 0 0 28.3 141.7" xml:space="preserve">
<g id="Calque_1">
	<path fill="#82152A" d="M326.2-26.9c0.3-0.5,0.7-0.2,0.5,0.3c-1.5,3.6-0.2,5.5,2,5c1.6-0.4,3.7-1,13-3.4
		c21.6-5.8,31.3,12.1,15.2,40.5c-2.3,4.1-14.6,25.9-15.3,27.1c-0.4,0.7-1,0.7-0.3-0.8c17-34.7,17.4-59.5-7.2-53
		c-7.6,2-15.4,4.1-18.4,4.9c-0.5,0.1-0.9-0.4-0.6-0.8C317.5-11.5,325.8-26.2,326.2-26.9z"/>
	<path fill="#82152A" d="M377.2-61.3c24.4,7.1,3.1,42.2-18.1,29.9c-7-4-13.9-8.1-18.4-10.6c-3.4-1.9-5.5,1.2-7.7,4.4
		c-0.3,0.5-0.9,0.2-0.6-0.3l11.2-19.8c0.2-0.4,0.8-0.6,1.2-0.3c2.3,1.4,10,6.1,20,11.5c14,7.6,24.3-5.4,12.2-14.4
		C376.8-61,376.9-61.4,377.2-61.3z"/>
	<g>
		<path fill="#FFFFFF" d="M14.2,27.8c-7.5,0-13.7-6.1-13.7-13.7c0-7.5,6.1-13.7,13.7-13.7c7.5,0,13.7,6.1,13.7,13.7
			C27.8,21.7,21.7,27.8,14.2,27.8z"/>
		<path fill="#82152A" d="M14.2,1c7.3,0,13.2,5.9,13.2,13.2s-5.9,13.2-13.2,13.2S1,21.4,1,14.2S6.9,1,14.2,1 M14.2,0
			C6.3,0,0,6.3,0,14.2C0,22,6.3,28.3,14.2,28.3S28.3,22,28.3,14.2C28.3,6.3,22,0,14.2,0L14.2,0z"/>
	</g>
	<g>
		<path fill="#FFFFFF" d="M14.2,56.2c-7.5,0-13.7-6.1-13.7-13.7s6.1-13.7,13.7-13.7c7.5,0,13.7,6.1,13.7,13.7S21.7,56.2,14.2,56.2z"
			/>
		<path fill="#82152A" d="M14.2,29.3c7.3,0,13.2,5.9,13.2,13.2s-5.9,13.2-13.2,13.2S1,49.8,1,42.5S6.9,29.3,14.2,29.3 M14.2,28.3
			C6.3,28.3,0,34.7,0,42.5c0,7.8,6.3,14.2,14.2,14.2s14.2-6.3,14.2-14.2C28.3,34.7,22,28.3,14.2,28.3L14.2,28.3z"/>
	</g>
	<g>
		<path fill="#FFFFFF" d="M14.2,84.5c-7.5,0-13.7-6.1-13.7-13.7s6.1-13.7,13.7-13.7c7.5,0,13.7,6.1,13.7,13.7S21.7,84.5,14.2,84.5z"
			/>
		<path fill="#82152A" d="M14.2,57.7c7.3,0,13.2,5.9,13.2,13.2S21.4,84,14.2,84S1,78.1,1,70.9S6.9,57.7,14.2,57.7 M14.2,56.7
			C6.3,56.7,0,63,0,70.9C0,78.7,6.3,85,14.2,85s14.2-6.3,14.2-14.2C28.3,63,22,56.7,14.2,56.7L14.2,56.7z"/>
	</g>
	<g>
		<path fill="#FFFFFF" d="M14.2,112.9c-7.5,0-13.7-6.1-13.7-13.7c0-7.5,6.1-13.7,13.7-13.7c7.5,0,13.7,6.1,13.7,13.7
			C27.8,106.8,21.7,112.9,14.2,112.9z"/>
		<path fill="#82152A" d="M14.2,86c7.3,0,13.2,5.9,13.2,13.2s-5.9,13.2-13.2,13.2S1,106.5,1,99.2S6.9,86,14.2,86 M14.2,85
			C6.3,85,0,91.4,0,99.2s6.3,14.2,14.2,14.2s14.2-6.3,14.2-14.2S22,85,14.2,85L14.2,85z"/>
	</g>
	<g>
		<circle fill="#82152A" cx="14.2" cy="127.6" r="14.2"/>
	</g>
	<g>
		<line fill="none" stroke="#82152A" stroke-miterlimit="10" x1="14.2" y1="98.5" x2="14.2" y2="108.4"/>
		<path fill="none" stroke="#82152A" stroke-miterlimit="10" d="M10.4,89.6v5.2c0,2.1,1.7,3.8,3.8,3.8s3.8-1.7,3.8-3.8v-5.2H10.4z"
			/>
		<ellipse fill="none" stroke="#82152A" stroke-miterlimit="10" cx="14.2" cy="108.4" rx="3.8" ry="0.5"/>
	</g>
</g>
<g id="Calque_2">
	<g>
		<path fill="#82152A" d="M22.1,38.3c4.9-1.2,4.7,7-0.2,7c-1.6,0-3.2,0-4.3,0c-0.8,0-0.8,0.7-0.9,1.5c0,0.1-0.1,0.1-0.1,0l0-4.5
			c0-0.1,0.1-0.2,0.2-0.2c0.5,0,2.3,0.1,4.6,0C24.6,42,25.1,38.8,22.1,38.3C22,38.4,22,38.3,22.1,38.3z"/>
		<path fill="#82152A" d="M6.3,38.3c-4.9-1.2-4.7,7,0.2,7c1.6,0,3.2,0,4.3,0c0.8,0,0.8,0.7,0.9,1.5c0,0.1,0.1,0.1,0.1,0l0-4.5
			c0-0.1-0.1-0.2-0.2-0.2c-0.5,0-2.3,0.1-4.6,0C3.8,42,3.3,38.8,6.3,38.3C6.3,38.4,6.3,38.3,6.3,38.3z"/>
	</g>
	<g>
		<g>
			<path fill="#82152A" d="M25.7,9.5C25.7,10.1,25.6,9,25.7,9.5L25.7,9.5z"/>
			<path fill="#82152A" d="M25.7,9.5c-0.1-0.8-0.4-1.7-1-2.2C24.3,7,24,6.9,23.6,6.8c-0.2,0-0.4-0.1-0.6-0.1c-0.1,0-0.3,0-0.4,0
				c-0.1,0-0.1,0.1,0,0.1c0,0,0.1,0,0.1,0c0.2,0,0.4,0,0.6,0.1c0.4,0.1,0.7,0.3,1,0.6C24.9,8.1,25,9.1,25,9.9c0,0.7-0.2,1.3-0.4,1.9
				c0,0.1-0.1,0.2-0.1,0.3c-0.1,0-0.1,0-0.2-0.1c-0.2-0.1-0.4-0.2-0.6-0.3c-0.2-0.1-0.4-0.3-0.6-0.5c-0.5-0.7-0.5-1.4-0.1-2.2
				c0,0,0-0.1,0.1-0.1c0-0.1-0.1-0.1-0.1-0.1c-0.1,0.1-0.2,0.2-0.2,0.3c-0.2,0.4-0.3,0.7-0.4,1.2c0,0.6,0.1,1,0.4,1.5
				c0.3,0.5,0.8,0.9,1.3,1.1c-0.4,0.8-0.9,1.6-1.5,2.2c-0.1,0.1-0.1,0.2-0.2,0.2c-0.1,0.1-0.1,0-0.2,0c-0.2,0-0.4,0-0.6-0.1
				c-0.4-0.1-0.8-0.3-1.1-0.6c-0.5-0.4-0.7-1-0.8-1.5c-0.1-0.4,0-0.9,0.1-1.3c0-0.2,0.1-0.4,0.2-0.6c0-0.1,0.2-0.2,0.2-0.4
				c0-0.1-0.1-0.1-0.1-0.1c-0.1,0.1-0.1,0.2-0.2,0.3c-0.2,0.2-0.3,0.5-0.5,0.8C19,12.7,18.9,13.4,19,14c0,0.5,0.2,1.1,0.5,1.5
				c0.3,0.6,0.8,1,1.4,1.3c-0.2,0.1-0.4,0.3-0.7,0.4c0,0,0,0,0,0c-0.6,0.4-1.3,0.6-1.9,0.8c-0.4,0.1-0.8,0.1-1.1,0.1
				c-0.3,0-0.7,0-1,0c-0.1,0-0.1,0.1-0.1,0.1l0,3.3c0,0.1,0.1,0.1,0.1,0c0-0.5,0.1-1,0.5-1.1c0.1,0,0.1,0,0.2,0
				c1.7,0,3.3-0.9,4.7-1.9c1.4-1.1,2.5-2.6,3.3-4.2C25.4,12.9,25.8,11.2,25.7,9.5z"/>
		</g>
		<g>
			<path fill="#82152A" d="M2.7,9.5C2.6,10.1,2.8,9,2.7,9.5L2.7,9.5z"/>
			<path fill="#82152A" d="M2.7,9.5c0.1-0.8,0.4-1.7,1-2.2C4,7,4.4,6.9,4.8,6.8c0.2,0,0.4-0.1,0.6-0.1c0.1,0,0.3,0,0.4,0
				c0.1,0,0.1,0.1,0,0.1c0,0-0.1,0-0.1,0C5.4,6.9,5.2,6.9,5,7C4.7,7,4.3,7.2,4,7.5C3.4,8.1,3.3,9.1,3.4,9.9c0,0.7,0.2,1.3,0.4,1.9
				c0,0.1,0.1,0.2,0.1,0.3c0.1,0,0.1,0,0.2-0.1c0.2-0.1,0.4-0.2,0.6-0.3c0.2-0.1,0.4-0.3,0.6-0.5c0.5-0.7,0.5-1.4,0.1-2.2
				c0,0,0-0.1-0.1-0.1c0-0.1,0.1-0.1,0.1-0.1C5.5,9,5.6,9.2,5.6,9.3C5.8,9.7,5.9,10,6,10.4c0,0.6-0.1,1-0.4,1.5
				c-0.3,0.5-0.8,0.9-1.3,1.1c0.4,0.8,0.9,1.6,1.5,2.2c0.1,0.1,0.1,0.2,0.2,0.2c0.1,0.1,0.1,0,0.2,0c0.2,0,0.4,0,0.6-0.1
				c0.4-0.1,0.8-0.3,1.1-0.6c0.5-0.4,0.7-1,0.8-1.5c0.1-0.4,0-0.9-0.1-1.3c0-0.2-0.1-0.4-0.2-0.6c0-0.1-0.2-0.2-0.2-0.4
				c0-0.1,0.1-0.1,0.1-0.1c0.1,0.1,0.1,0.2,0.2,0.3c0.2,0.2,0.3,0.5,0.5,0.8c0.3,0.6,0.4,1.2,0.3,1.9c0,0.5-0.2,1.1-0.5,1.5
				c-0.3,0.6-0.8,1-1.4,1.3c0.2,0.1,0.4,0.3,0.7,0.4c0,0,0,0,0,0c0.6,0.4,1.3,0.6,1.9,0.8c0.4,0.1,0.8,0.1,1.1,0.1c0.3,0,0.7,0,1,0
				c0.1,0,0.1,0.1,0.1,0.1l0,3.3c0,0.1-0.1,0.1-0.1,0c0-0.5-0.1-1-0.5-1.1c-0.1,0-0.1,0-0.2,0c-1.7,0-3.3-0.9-4.7-1.9
				c-1.4-1.1-2.5-2.6-3.3-4.2C2.9,12.9,2.5,11.2,2.7,9.5z"/>
		</g>
	</g>
	<g>
		<path fill="#82152A" d="M7.8,70.1l6.7-7.4c3,0.9,5.2,2.3,6.4,4L7.8,70.1z"/>
		<g>
			<polygon fill="#82152A" points="20.9,66.7 20.9,73.3 7.8,76.7 7.8,70.1 			"/>
		</g>
		<ellipse transform="matrix(0.9938 0.1116 -0.1116 0.9938 8.2326 -0.515)" fill="#FFFFFF" cx="8.7" cy="73.3" rx="1.5" ry="2"/>
		<g>
			<ellipse fill="#FFFFFF" cx="18.2" cy="72.6" rx="1.9" ry="2.1"/>
		</g>
		<g>
			<path fill="#FFFFFF" d="M13.1,68.1c-0.8,0.5-1.2,1.5-0.7,2.2c0.4,0.7,1.4,0.9,2.2,0.4s1.2-1.5,0.7-2.2
				C14.9,67.8,13.9,67.6,13.1,68.1z"/>
		</g>
		<path fill="#FFFFFF" d="M13.1,66.8c-0.9,0.1-1.5,0.6-1.4,1.2c0.1,0.6,1,1,1.9,0.9c0.9-0.1,1.5-0.6,1.4-1.2S14,66.7,13.1,66.8z"/>
	</g>
</g>
</svg>
