<?xml version="1.0" encoding="utf-8"?>
<!-- Generator: Adobe Illustrator 17.1.0, SVG Export Plug-In . SVG Version: 6.00 Build 0)  -->
<!DOCTYPE svg PUBLIC "-//W3C//DTD SVG 1.1//EN" "http://www.w3.org/Graphics/SVG/1.1/DTD/svg11.dtd">
<svg version="1.1" id="Calque_1" xmlns="http://www.w3.org/2000/svg" xmlns:xlink="http://www.w3.org/1999/xlink" x="0px" y="0px"
	 viewBox="0 0 95.5 433" enable-background="new 0 0 95.5 433" xml:space="preserve">
<path fill="#6A141A" d="M95.4,404.6c0-6.3,0-12.6,0-19c0-10.8,0-21.5,0-32.3c0-13.5,0-27,0-40.5c0-14.5,0-29.1,0-43.6
	c0-13.9,0-27.8,0-41.7c0-11.5,0-23.1,0-34.6c0-7.5,0-15,0-22.5c0-1.7,0-3.4,0-5.1c-0.1-10.3-3.1-20.5-8.7-29.3
	c-3.3-5.1-7.6-9.4-11.8-13.8c-2-2-3.9-4-5.3-6.4c-1.4-2.3-2.3-4.8-2.9-7.4c-1.2-5.4-0.9-11.2-1-16.7c-0.1-14-0.2-28-0.4-42.1
	c-0.1-6-0.1-11.9-0.2-17.9c0-1.7-0.2-3.5,0.1-5.1c0.2-1.3,1-2.3,1.4-3.5c0.4-1.4,0.3-3.1,0.2-4.5c0-1.5,0-3-0.1-4.5
	c0-0.6,0-1.2-0.3-1.8c-0.2-0.6-0.6-1.2-0.8-1.8c-0.4-1.4,0-2.8-0.3-4.2c-0.3-1.4-1.2-2-2.3-2.9c-0.5-0.4-0.8-1-1.3-1.5
	c-1-0.7-2.7-0.9-3.9-1.1c-2.9-0.5-5.9-0.7-8.8-0.7c-3.2-0.1-6.4,0-9.5,0.5c-1.5,0.2-2.9,0.5-4.4,0.8c-1.4,0.3-2.2,0.6-3,1.8
	c-0.3,0.4-0.9,0.6-1.3,1c-0.4,0.4-0.7,0.8-1,1.4c-0.6,1.4-0.4,2.8-0.4,4.3c0,1.3-1,2.3-1.1,3.7c-0.2,1.5-0.1,3.1-0.1,4.7
	c0,1.5-0.1,2.9,0.2,4.4c0.3,1.5,1.2,2.7,1.4,4.1c0.2,0.9,0.2,1.9,0.1,2.9C30.1,39.8,30.1,50,30,60.2c-0.1,11.4-0.2,22.8-0.3,34.3
	c-0.1,7.4,0,15.4-4.1,21.9c-1.6,2.6-3.8,4.6-5.9,6.8c-2.1,2.2-4.3,4.4-6.3,6.7c-3.9,4.5-7,9.5-9.1,15C-0.2,156.6,0,169.1,0,181.4
	c0,8.5,0,17,0,25.5c0,12.2,0,24.3,0,36.5c0,14,0,27.9,0,41.9c0,13.9,0,27.7,0,41.6c0,11.9,0,23.8,0,35.7c0,8,0,16,0,24.1
	c0,2,0,3.9,0,5.9c0,2.3,0,4.5,0,6.8c0,3.3,0,6.5,0.1,9.8c0.1,3.1,0.1,6.4,0.9,9.5c0.8,2.7,2.6,5,4.3,7.1c1.6,1.9,3.9,3.1,6.3,3.9
	c5.7,1.9,11.9,2.6,17.9,3.1c6.5,0.5,13.1,0.3,19.7,0.4c6.6,0.1,13.1-0.1,19.7-0.7c3.2-0.3,6.4-0.7,9.5-1.4c2.9-0.6,5.9-1.4,8.5-2.8
	c5-2.7,7.7-8.4,8.2-13.9c0.6-8,0.4-16.1,0.4-24.1c0-0.1,0-0.2,0-0.3c0,5,0,9.9,0,14.9C95.4,404.7,95.4,404.7,95.4,404.6
	C95.4,378,95.4,407.5,95.4,404.6z"/>
</svg>
